<?xml version="1.0" encoding="UTF-8"?> <svg xmlns="http://www.w3.org/2000/svg" viewBox="0 0 61.73 69.67"><title>Asset 1</title><g id="Layer_2" data-name="Layer 2"><g id="Layer_1-2" data-name="Layer 1"><path d="M7.14,44.17a4.52,4.52,0,0,0-2.2.65,6.23,6.23,0,0,0-3,3.86,6.9,6.9,0,0,0,.25,4.55,12.09,12.09,0,0,0,3,4.83,13.61,13.61,0,0,0,3.66,2.53,7,7,0,0,0,3.53.47,5,5,0,0,0,2.27-1,4,4,0,0,0,1.57-1.94,17.42,17.42,0,0,0,.57-2,.45.45,0,0,0-.11-.49.41.41,0,0,1,0-.61c.13-.15.27-.28.4-.41s.13-.17.24-.11.08.18.05.28,0,.23.16.18a2.4,2.4,0,0,0,1.38-1c0-.07.1-.16,0-.24s-.15-.05-.23,0a2.17,2.17,0,0,0-.91.54c-.1.1-.28.25-.36.16-.23-.26-.44-.06-.66-.05-.58,0-.77.53-1.08.88a.26.26,0,0,0,0,.24,1.88,1.88,0,0,1,0,1.26,9.42,9.42,0,0,1-.53,1.21,3.19,3.19,0,0,1-2.87,2A6.4,6.4,0,0,1,8.64,59a5.15,5.15,0,0,1-2.42-3.24,1.87,1.87,0,0,0-.92-1.23A4.16,4.16,0,0,1,3.58,52.9a5.74,5.74,0,0,1-.51-3.73,4.6,4.6,0,0,1,5-3.77A2.79,2.79,0,0,1,9.43,46c.06,0,.16.11.12.2s-.17.06-.26,0-.3-.12-.47-.15a4.88,4.88,0,0,0-3.39.55,3.53,3.53,0,0,0-1.56,1.72,4.85,4.85,0,0,0-.24,3.23,3.58,3.58,0,0,0,1.51,2.26,6.39,6.39,0,0,0,1.14.57.87.87,0,0,1,.61.76,4.54,4.54,0,0,0,.36,1.45A4.6,4.6,0,0,0,10.06,59a3.71,3.71,0,0,0,3.74-.4A3.23,3.23,0,0,0,15,56.56c0-.12.06-.27-.07-.33s-.27,0-.38.11a1,1,0,0,0-.28.57,2.08,2.08,0,0,1-1.45,1.61,3.83,3.83,0,0,1-3.6-.6A3.74,3.74,0,0,1,8,56.65a5.11,5.11,0,0,1-.62-2.19c0-.24-.13-.35-.37-.4a3.57,3.57,0,0,1-2.49-1.84,4.9,4.9,0,0,1-.34-1.89,3.23,3.23,0,0,1,1-2.76,3.73,3.73,0,0,1,4.1-.81c.27.09.6.31.5.63a4.06,4.06,0,0,0,0,1.35.7.7,0,0,0,.19.43,1.34,1.34,0,0,0,2.13-.54,2.4,2.4,0,0,0-.35-2.21c-.16-.2-.31-.4-.45-.61a3.33,3.33,0,0,0-1.85-1.3A7.75,7.75,0,0,0,7.14,44.17ZM.08,28c0,.22.19.35.36.48l2.22,1.61c.21.16.55.21.51.6,0,.07.09.07.15.06s.33.05.47.18l.69.56c.1.1.23.18.32,0a6.59,6.59,0,0,0,.39-.8.21.21,0,0,0-.09-.28c-.3-.18-.48-.49-.76-.7s-.18-.23-.1-.43A5.19,5.19,0,0,1,5,28.24a.37.37,0,0,1,.54,0c.17.13.34.26.52.38s.41.21.59-.08.3-.36.45-.55.37-.32.63-.12.62.43.91.68a.34.34,0,0,1,0,.57,3,3,0,0,0-.45.55.37.37,0,0,0,.07.56,5.08,5.08,0,0,1,1,.92.32.32,0,0,1,.05.36c-.1.19-.21.38-.32.56-.55.8-.82.83-1.58.22l0,0c-.53-.45-.53-.45-.93.09-.28.36-.26.46.09.72.6.45,1.22.87,1.8,1.35.78.66,1.64,1.21,2.43,1.86.28.23.47.14.64-.11a6.13,6.13,0,0,1,.42-.58c.27-.3.26-.38-.06-.63l-1.34-1a.35.35,0,0,1-.1-.5,4.78,4.78,0,0,1,.53-.84.41.41,0,0,1,.62-.1c.49.31,1,.52,1.49.87a.27.27,0,0,0,.43-.06c.24-.32.5-.63.75-1s.23-.51-.13-.76l-2-1.48c-1.38-1-2.78-1.95-4.14-2.95s-2.9-2-4.29-3.13c-.38-.29-.54-.27-.82.1a3.49,3.49,0,0,1-.68.86c-.3.22-.19.64.17.81a9,9,0,0,1,1.31.91.34.34,0,0,1,.12.47,8.74,8.74,0,0,1-.62,1c-.26.35-.49.36-.84.08s-.62-.52-.93-.77C.6,26.87.31,27,.14,27.81.12,27.87.11,27.94.08,28ZM50.9,34.92a.54.54,0,0,0,.83.53l.21-.14c1.19-1,2.49-1.81,3.76-2.69.24-.17.22-.31.09-.5a3.71,3.71,0,0,0-.27-.29.5.5,0,0,0-.75-.08c-.24.17-.51.31-.75.48a.34.34,0,0,1-.5,0,3.64,3.64,0,0,1-.64-.77.58.58,0,0,1,.2-.89c.15-.1.29-.21.43-.32.61-.47.62-.49.2-1.13a.56.56,0,0,0-.05-.08.3.3,0,0,1,.06-.49c.21-.19.45-.31.67-.48.53-.4.58-.4,1,.13.28.37.36.38.75.11.21-.15.44-.27.66-.41a.26.26,0,0,1,.39,0c.26.35.5.72.76,1.07a.33.33,0,0,1-.09.52c-.25.22-.54.39-.77.63a.52.52,0,0,0,0,.79c.06.06.14.11.17.18.12.3.28.22.46.07,1-.78,2-1.51,3.06-2.21s1-.87.44-1.74c-.24-.35-.39-.38-.73-.13l-.89.65c-.14.09-.32.19-.41,0a5,5,0,0,0-.47-.72c-.22-.39-.21-.5.16-.75a8,8,0,0,0,.91-.74.38.38,0,0,0,.08-.54c-.18-.26-.34-.52-.52-.77s-.33-.36-.66-.07-.61.54-.94.77c-1.71,1.18-3.4,2.37-5.07,3.61-1.35,1-2.74,2-4.12,2.94-.13.09-.3.2-.18.36.37.48.67,1,1.08,1.47.1.1.22.14.31,0,.33-.39.84-.48,1.22-.8a.24.24,0,0,1,.37,0c.23.29.43.59.64.9a.31.31,0,0,1-.1.44l-.65.5A.69.69,0,0,0,50.9,34.92ZM42.92,19a1.6,1.6,0,0,1-.18-.93,8.11,8.11,0,0,1,.88-2.76,2.4,2.4,0,0,1,1.89-1.37,2.21,2.21,0,0,1,1.64.24c.27.19.47.11.66-.16.3-.42.64-.82,1-1.23s.31-.48-.18-.67a4,4,0,0,0-1.81-.24l-1,.11a1.51,1.51,0,0,1,1.09-.5,11.66,11.66,0,0,1,2.34.38c.11,0,.24.09.29-.07s-.09-.18-.19-.22a4.71,4.71,0,0,0-4.63.41,5.35,5.35,0,0,0-1.87,2.79,8.81,8.81,0,0,0-.33,1.39,15.06,15.06,0,0,0-.15,3,37.77,37.77,0,0,0,.35,5.73c0,.07,0,.17.09.16s.12-.08.12-.15,0-.22,0-.33A1,1,0,0,1,43,24c.09,0,.11.1.15.16s.12.44.28.39.11-.34.11-.54-.06-.27.06-.32.16.12.21.23l.09.16c0,.05.07.1.14.09s.06-.09.07-.14,0-.39,0-.57,0-.2.1-.21.12.1.16.18l0,.1c0,.1.05.25.17.23s.11-.18.11-.29,0-.1,0-.15,0-.18.09-.22.14.06.19.12.1.15.2.1.07-.11.08-.18,0-.27,0-.4,0-.18.1-.21.13.07.16.15a.75.75,0,0,1,.07.12c0,.08.07.17.17.15s.15-.11.15-.22a1.06,1.06,0,0,0,0-.31,7.73,7.73,0,0,1-.34-2.23c0-1.78-.2-3.57.55-5.27,0-.09.14-.24,0-.3s-.17.11-.2.21c-.13.45-.25.9-.37,1.35a.53.53,0,0,1-.2.41c-.06-.58.1-1.1,0-1.64-.14.07-.13.2-.15.29-.09.28-.16.55-.23.83,0,.08-.07.17-.17.16s-.08-.13-.09-.21a1.47,1.47,0,0,0,0-.54,3.38,3.38,0,0,0-.18.93c0,.12,0,.29-.15.34s-.11-.2-.27-.19c-.12.33,0,.7-.18,1-.3-.18-.16-.54-.35-.79a4.16,4.16,0,0,0-.11.89c0,.15,0,.39-.14.41-.3.05-.22.27-.25.43A.81.81,0,0,1,42.92,19ZM43,27.39c0,.11,0,.15-.08.21a3,3,0,0,1-.55.45c-.08.07-.22.17-.14.29s.21,0,.3,0l1-.7c.76-.58,1.53-1.16,2.33-1.69.48-.31,1-.62,1.42-1,1.27-.95,2.59-1.82,3.89-2.74l2.38-1.69c.07-.06.23-.1.15-.24s-.19-.07-.31,0-.33.27-.47.1.17-.23.23-.35.17-.19.1-.33a.18.18,0,0,0-.2-.12c-.29.08-.35,0-.28-.3s-.14-.2-.28-.17a1.07,1.07,0,0,0-.27.16c-.84.62-1.67,1.26-2.52,1.86C47.87,22.43,46,23.73,44.13,25c-.91.64-1.85,1.24-2.71,2-.09.08-.24.18-.16.32s.23,0,.34,0a2.56,2.56,0,0,1,.86-.36,1.33,1.33,0,0,1-.48.56c-.11.1-.29.21-.16.38s.25,0,.37-.06A2.63,2.63,0,0,1,43,27.39Zm-33-6.59A8.55,8.55,0,0,1,9,20.28c-.1,0-.22-.12-.29,0s.08.18.16.24c.64.46,1.3.9,2,1.34.91.6,1.78,1.29,2.67,1.94s1.94,1.48,3,2.15a31,31,0,0,1,3,2.23,1.33,1.33,0,0,0,.75.33,2.51,2.51,0,0,0-.58-.72c-.06-.05-.14-.12-.08-.21s.15,0,.23,0a5.56,5.56,0,0,1,.74.42c.06-.16,0-.24-.11-.33s-.23-.21-.33-.32-.13-.13-.08-.22.14,0,.22,0a2.28,2.28,0,0,1,.6.31.2.2,0,0,0,.29,0c.1-.14-.06-.19-.13-.24l-1.27-.91c-1-.67-1.9-1.35-2.87-2-.53-.35-1-.8-1.53-1.16-1-.71-2-1.52-3-2.27-.68-.5-1.32-1-2-1.54-.13-.1-.33-.3-.49-.12s.09.28.19.4l.05.05a.14.14,0,0,1,0,.17s-.11,0-.17,0l-.4-.13c-.09,0-.19-.06-.25.05s0,.19.08.26l.33.26A1.41,1.41,0,0,1,10.06,20.8Zm3.12,6.28-.43.33c-.09.07-.18.14-.29.07s0-.17,0-.26a.84.84,0,0,0,0-.17c0-.17.17-.43,0-.5s-.25.18-.37.3l0,0c-.12.11-.26.23-.4.16s0-.23,0-.34.17-.42,0-.53-.29.15-.44.23l-.06,0c-.06,0-.13.08-.2,0s0-.13,0-.2.06-.33.1-.49.06-.17,0-.23-.13,0-.19,0l-.16.09c-.08.05-.16.13-.26.05s0-.17,0-.26a.89.89,0,0,0,0-.14c0-.1.06-.22,0-.3s-.2,0-.3,0-.22.2-.34.11,0-.25,0-.37a.32.32,0,0,0-.11-.35c-.13-.09-.22,0-.33.06s-.2.35-.39.21,0-.28,0-.43.06-.22,0-.29-.18,0-.25.07-.21.14-.33.07a.26.26,0,0,1-.09-.29c.07-.35-.09-.4-.38-.3A6.73,6.73,0,0,1,5.1,24c-.1,0-.23,0-.25.08s.1.18.19.23a29,29,0,0,1,2.44,1.72c1,.77,2,1.51,3.06,2.26s2.14,1.47,3.14,2.28c.06.05.14.14.22.06s0-.13,0-.2a7.43,7.43,0,0,1-.13-2.35c0-.21.1-.51-.09-.6s-.35.16-.48.33-.07.11-.14.07-.06-.12,0-.18A.82.82,0,0,0,13.18,27.08Zm36.1-.26a1,1,0,0,0,0,.38,5.65,5.65,0,0,1-.3,2.08c-.11.3-.24.6-.34.9,0,.12-.12.29,0,.37s.21-.07.3-.13.37-.3.57-.43l2.06-1.46c.89-.64,1.75-1.31,2.65-1.92s2-1.45,3-2.22c.07-.05.15-.1.13-.2s-.15-.1-.24-.08a1,1,0,0,1-.46,0,6.29,6.29,0,0,1-2-.45,1.36,1.36,0,0,0-.41-.09c-.65-.09-.65-.09-.45.53v0c0,.08.09.17,0,.23s-.15,0-.22-.06a1.49,1.49,0,0,1-.14-.12c-.1-.07-.18-.24-.32-.15s0,.24,0,.36.15.27,0,.36-.19-.1-.29-.15-.2-.22-.34-.13,0,.23,0,.36.12.19,0,.26-.16-.06-.23-.1-.2-.23-.34-.12,0,.24,0,.36.14.24,0,.33-.22-.06-.32-.13-.19-.24-.32-.15,0,.24,0,.37.12.18,0,.25-.17,0-.24-.07-.19-.24-.31-.18,0,.26,0,.39,0,.07,0,.1,0,.11,0,.13-.1,0-.15,0a1.14,1.14,0,0,0-.16-.15c-.06-.05-.12-.13-.22-.07s0,.15,0,.23.15.3.06.48c-.2,0-.24-.22-.37-.32s-.14-.1-.22-.05-.05.13,0,.21.09.24.12.37.05.14,0,.19-.11,0-.17,0S49.47,26.85,49.28,26.82ZM13.56,56.75a2.56,2.56,0,0,1,.43-.34,4.52,4.52,0,0,0,1.18-1.21,1.19,1.19,0,0,0,.27-1.09,2.33,2.33,0,0,0-1.15-2,.61.61,0,0,0-.83.21c-.17.33,0,.48.29.6s.26.19.19.34-.24.13-.38.08c-.32-.09-.48-.34-.45-.83s.16-.77.56-.9a1.48,1.48,0,0,1,1.79.7c.29.44.44,1,.7,1.41.06.11.11.27.28.2s.11-.26,0-.37a4.9,4.9,0,0,0-1.25-2,1.65,1.65,0,0,0-1.6-.41c-.32.1-.74.1-.92.46A1.45,1.45,0,0,0,12.66,53a2.53,2.53,0,0,0,.44.58c.41.43.57.49,1.08.21a.34.34,0,0,1,.53.14c.29.51.26.74-.21,1.1A2.1,2.1,0,0,0,13.56,56.75Zm34.93-5.54a2,2,0,0,0-1.81,1.66c-.08.36.11.48.37.62s.33-.12.44-.26.08-.14.13-.21c.26-.33.41-.34.67,0a1.13,1.13,0,0,0,1.58.05,1.42,1.42,0,0,0-.64-2.44,2.49,2.49,0,0,0-2.7.81,2.71,2.71,0,0,0-.66,1.21A.29.29,0,0,0,46,53c.17.09.23-.07.29-.18s.12-.36.19-.54A2,2,0,0,1,49.22,51a1.07,1.07,0,0,1,.63,1,.8.8,0,0,1-.61.67c-.1,0-.23.06-.28-.07s.08-.16.15-.21c.34-.23.37-.42.17-.75A1,1,0,0,0,48.49,51.21ZM43.3,30.12a.34.34,0,0,0,.16-.08c.52-.46,1.13-.77,1.69-1.18l4.42-3.23c.7-.51,1.39-1,2.1-1.52.94-.65,1.9-1.29,2.85-1.94.15-.11.31-.24.17-.44s-.29,0-.41.08c-.74.5-1.45,1-2.19,1.52-1.62,1-3.14,2.21-4.72,3.3-1.12.76-2.12,1.69-3.23,2.45-.33.22-.64.45-1,.68-.08.06-.18.14-.12.27S43.18,30.13,43.3,30.12ZM7.94,21.88a.23.23,0,0,0-.18.17c-.06.16,0,.25.15.32,1,.67,2,1.46,3,2.15,1.61,1.12,3.19,2.27,4.74,3.47,1,.8,2.11,1.49,3.17,2.23.13.08.3.28.45,0s-.11-.29-.22-.39a.42.42,0,0,0-.12-.08,24,24,0,0,1-2.17-1.44c-.62-.44-1.21-.9-1.8-1.39-.9-.73-1.86-1.38-2.78-2.1A42.14,42.14,0,0,0,8.1,22ZM54.32,21a.27.27,0,0,0-.14-.21.27.27,0,0,0-.3,0c-.29.21-.56.45-.86.64-1.43.94-2.77,2-4.15,3s-2.72,1.83-4,2.83l-2.06,1.58c-.1.08-.19.17-.1.3s.2.05.29,0l.18-.11c1.38-.94,2.67-2,4.07-2.93s2.5-1.73,3.71-2.66c1-.8,2.12-1.51,3.2-2.25C54.22,21.21,54.31,21.17,54.32,21ZM19.68,29.22c0-.17-.16-.23-.27-.3-1.94-1.36-3.85-2.78-5.77-4.18-1.68-1.23-3.43-2.38-5.05-3.69l-.18-.11c-.08,0-.17-.05-.23,0a.23.23,0,0,0,0,.27,1,1,0,0,0,.25.21c.47.38,1,.69,1.48,1.05,1.35,1,2.67,2,4,3,1.56,1.13,3.13,2.23,4.7,3.34l.77.51c.08,0,.16.08.23,0S19.67,29.24,19.68,29.22Zm9.19,6.32a.94.94,0,0,0-.39.23,10.22,10.22,0,0,1-1.57,1c-.27.12-.23.28-.1.39s.14.32.06.5-.11.27,0,.32c.41.13.15.28,0,.45s-.25.25,0,.31c.46.14.15.29,0,.45s-.38.24-.35.57c.9-.72,1.81-1.35,2.64-2.1.05,0,.13-.09.08-.17s-.09-.06-.14-.07-.27,0-.3-.13.1-.2.18-.29l.15-.15c.15-.13.13-.23-.08-.23s-.2-.13-.1-.27.16-.12.14-.23C28.65,36,28.65,36,28.87,35.54Zm3.78-2.16c.06.57.12,1.15.17,1.73,0,.25.14.26.29.12a4.15,4.15,0,0,1,.84-.6,4,4,0,0,0,.7-.53c.1-.09.21-.2.13-.34l-.88-1.5a.2.2,0,0,0-.23-.13A1.47,1.47,0,0,0,32.65,33.38ZM36.14,38c0-.55,0-1-.54-1.25-.21-.1-.72,0-.73.27s-.15.24-.31.23-.29,0-.21.21c.18.41-.1.29-.28.25s-.25-.08-.32.05.09.2.17.27c.62.5,1.26,1,1.85,1.52.08.08.19.16.31.08a.29.29,0,0,0,.11-.32A8.38,8.38,0,0,1,36.14,38Zm12-22.82a.54.54,0,0,0,.41-.17c.69-.86,1.4-1.71,2-2.61.15-.2.27-.43,0-.63a.44.44,0,0,0-.68.13l-2.07,2.71a.39.39,0,0,0,0,.44A.28.28,0,0,0,48.15,15.16ZM31.9,49.37c.7,0,.78-.07.67-.5a.92.92,0,0,0-.09-.23A1.29,1.29,0,0,0,31.16,48a1.72,1.72,0,0,0-1.41.9c-.15.23,0,.41.28.41A13.79,13.79,0,0,1,31.9,49.37ZM29.2,33.92c-.06-.44.06-.93-.39-1.25-.18-.12-.36-.26-.54-.4a.24.24,0,0,0-.39.06l-.54.8c-.12.17-.06.31.1.42.41.29.8.59,1.21.89a.32.32,0,0,0,.54-.24A1.31,1.31,0,0,0,29.2,33.92Zm9.06-4.79a.54.54,0,0,0-.52.76,5.91,5.91,0,0,0,.41.79c.58.95.45.9,1.39.2a.28.28,0,0,0,.07-.45,9.6,9.6,0,0,0-1-1.18A.48.48,0,0,0,38.26,29.13Zm9.5,26.62c.13-.13,0-.38.21-.36s.14.22.18.35c.07.29.11.59.17.88,0,.1.06.19.17.21a.12.12,0,0,0,.13-.1,2.1,2.1,0,0,0,.14-1.48c-.37-.89-1.25-1-2-1.33-.06,0-.18-.05-.23,0s0,.19,0,.27A8.46,8.46,0,0,0,47.76,55.75Zm-35.89-39,0,.14c0,.13,0,.29.19.31s.12-.15.18-.23c.24-.38.5-.75.75-1.12s.55-.59.8-.9c.06-.09.15-.17.1-.29s-.15-.11-.26-.1a.2.2,0,0,1-.21-.1c-.27-.41-.39-.42-.68,0a6.84,6.84,0,0,1-.82.88,4.11,4.11,0,0,0-.57.68.28.28,0,0,0,0,.39c.15.11.22-.06.28-.14.33-.45.78-.79,1.08-1.26a.19.19,0,0,1,.28-.07c.09.07.17.21.07.31-.39.4-.53,1-1.1,1.26A.25.25,0,0,0,11.87,16.7Zm20.32,30a.75.75,0,0,0-.64-.79,1,1,0,0,0-1.07.35c-.27.41-.25.61.11.93a1,1,0,0,0,1.12.21A.66.66,0,0,0,32.19,46.72ZM11.1,13.85s.11,0,.12.06,0,.16-.09.21c-.24.21-.49.41-.72.63-.08.07-.18.18-.07.31s.21,0,.3-.05a14.33,14.33,0,0,1,1.57-1.22c.33-.2.33-.45.06-.74a.16.16,0,0,1-.06-.08c-.12-.32-.28-.24-.49-.09-.55.38-1,.83-1.62,1.16a2.06,2.06,0,0,0-.33.27.14.14,0,0,0,0,.19c0,.1.14.07.22,0a1.91,1.91,0,0,0,.48-.3A1.43,1.43,0,0,1,11.1,13.85Zm38.6,1c-.17,0-.34-.09-.43.08s0,.23.11.31A19.51,19.51,0,0,1,51,16.9c.19.21.27.06.34-.11s0-.27-.15-.37l-.95-.8c-.12-.11-.36-.24-.22-.41s.29.06.42.14c.41.26.67.67,1.05,1,.13.1.27.17.4,0a.24.24,0,0,0-.1-.39c-.64-.35-1.11-.93-1.71-1.33-.12-.08-.24-.22-.41-.11S49.7,14.74,49.7,14.89ZM31,49.77h0c-.36,0-.73,0-1.09,0s-.45,0-.44.33.24.3.44.29c.54,0,1.08.06,1.62.08a4,4,0,0,0,1.37-.08c.08,0,.19,0,.2-.16A.29.29,0,0,0,32.9,50a1.31,1.31,0,0,0-.57-.18C31.87,49.76,31.41,49.77,31,49.77Zm.91,15.3h.56c.11,0,.25,0,.22-.15-.06-.31-.11-.64-.44-.81a2,2,0,0,0-.68-.14,1.22,1.22,0,0,0-1.12.65c-.1.24,0,.37.23.37A12.27,12.27,0,0,0,31.86,65.07Zm1,1.12c.19,0,.27-.09.29-.24s0-.39-.2-.4c-.88,0-1.77-.06-2.65-.15-.14,0-.37.1-.21.33a.79.79,0,0,0,.65.42A13.62,13.62,0,0,1,32.81,66.19ZM26.45,48.91c0,.13-.07.31.07.37s.2-.15.3-.22A2.8,2.8,0,0,0,27.77,47c0-.1.05-.24-.08-.28s-.15.11-.2.19a3.94,3.94,0,0,1-.64,1A1.44,1.44,0,0,0,26.45,48.91Zm9-.34a3.63,3.63,0,0,0-1.07-2.84A3,3,0,0,0,35.47,48.57ZM53.59,14.49c0-.11-.09-.17-.15-.24-.22-.27-.56-.33-.83-.55a9.23,9.23,0,0,0-1.33-.87c-.13-.07-.25-.1-.34.06s-.1.27.07.36a1.77,1.77,0,0,0,.17.12c.64.37,1.29.72,1.89,1.14a.54.54,0,0,0,.32.13C53.51,14.64,53.58,14.61,53.59,14.49ZM37.31,48.82c0,1,.53,2.21,1.49,2.41A4.58,4.58,0,0,0,37.31,48.82Zm-8.12-3.51c0-.28,0-.49-.05-.69s0-.16-.1-.18-.14.06-.17.13a4.41,4.41,0,0,0-.5,2.28c0,.06,0,.13.07.15s.1,0,.14-.08A2.18,2.18,0,0,0,29.19,45.31Zm13.64,8a3.07,3.07,0,0,0-1.94-1.91C41.3,52.29,41.78,53.1,42.83,53.3Zm-20-1.88c0-.16-.1-.12-.2-.06a2.14,2.14,0,0,0-1.21,1.57c0,.22.05.3.27.21A2.24,2.24,0,0,0,22.8,51.42Zm7,.22a1,1,0,0,1-.12.51,14.86,14.86,0,0,0-.47,2.18c0,.17,0,.32.21.35s.18-.16.2-.28c.1-.64.19-1.28.29-1.91l.18-1.35c0-.11,0-.21-.12-.21s-.14.08-.13.17S29.75,51.45,29.81,51.64Zm7-1.72a2.93,2.93,0,0,0-1.2-2.54C35.9,48.31,36,49.28,36.85,49.92ZM31,25.1h0c.3,0,.59,0,.89,0,.13,0,.31.05.31-.19a.29.29,0,0,0-.3-.29,8.83,8.83,0,0,0-1-.11,1.69,1.69,0,0,0-.86.12.32.32,0,0,0-.18.32c0,.17.16.15.28.15Zm5.07,10c-.14-.21-.32-.12-.47,0a24.65,24.65,0,0,0-2.49,2l-.09.1c-.06.08-.11.19,0,.26s.15,0,.2-.08C34.1,36.68,35,36,36,35.33,36,35.29,36.08,35.26,36.08,35.15ZM53,15.06a.24.24,0,0,0-.17-.23,3.28,3.28,0,0,1-.82-.5,11.55,11.55,0,0,0-1.18-.79c-.12-.06-.27-.16-.38,0s.05.24.15.31l1,.73c.32.21.64.41,1,.6A.23.23,0,0,0,53,15.06ZM39.21,50.39c-.09,0-.12,0-.09.16a2.47,2.47,0,0,0,1.4,1.74c.12.05.2,0,.15-.12a2.94,2.94,0,0,0-1.35-1.72ZM33.37,69.3c-.16-.82-.32-1.64-.49-2.46,0-.1-.05-.23-.19-.22s-.12.15-.11.26a23.06,23.06,0,0,0,.33,2.48c0,.16.08.24.25.2S33.4,69.48,33.37,69.3Zm5-9.09c.2.14.36.27.53.4a1.54,1.54,0,0,0,1.46.3c.06,0,.15,0,.18-.08s0-.14-.1-.18a5.8,5.8,0,0,0-1.16-.6A1.06,1.06,0,0,0,38.32,60.21ZM50.81,17.33a.67.67,0,0,0-.09-.14,9.65,9.65,0,0,1-1-1.25,2,2,0,0,0-.49-.51c-.07,0-.13-.13-.22,0a.21.21,0,0,0,0,.26l.12.18a10.34,10.34,0,0,1,1.27,1.74c0,.08.13.21.25.13A.52.52,0,0,0,50.81,17.33Zm-31.61,42a1.74,1.74,0,0,0,1.62,1.25c.13,0,.25,0,.14-.16A1.93,1.93,0,0,0,19.2,59.37Zm10.24-20.6c0-.07,0-.15-.07-.19a.14.14,0,0,0-.19,0c-.64.52-1.3,1-2,1.5-.17.12-.1.21.06.28a.21.21,0,0,0,.23,0c.59-.41,1.18-.82,1.76-1.24A.45.45,0,0,0,29.44,38.77Zm5.71,21.85c-.2.08-.43,0-.48.14s.19.21.29.32a1.77,1.77,0,0,0,.37.27,1.47,1.47,0,0,0,1.19.17c.14,0,.23-.09.09-.23A3.51,3.51,0,0,0,35.15,60.62Zm3,.65.27,0c.1,0,.26,0,.28-.1s-.13-.17-.23-.22l-.81-.44a1.15,1.15,0,0,0-1-.08c-.16.05-.19.12,0,.24A2.62,2.62,0,0,0,38.1,61.27Zm-8-6.82c0,.14,0,.29.18.32s.16-.14.18-.25a4.19,4.19,0,0,0,.11-.78c0-.81.09-1.61.17-2.4,0-.12.07-.29-.06-.31s-.16.15-.18.26A30.31,30.31,0,0,1,30.08,54.45Zm4.79,7.19a4.17,4.17,0,0,0-1.46-.87,1.35,1.35,0,0,0-.59.07c-.13,0-.16.11,0,.2A2.19,2.19,0,0,0,34.87,61.64Zm11.7-6.76a3.23,3.23,0,0,0-1.87-1.7A2.52,2.52,0,0,0,46.57,54.88ZM31.33,51.3c0-.12,0-.28-.11-.3s-.14.15-.16.27,0,.16,0,.24c-.06,1-.13,2-.25,3,0,.13-.09.33.11.36s.2-.2.2-.32C31.12,53.49,31.29,52.4,31.33,51.3Zm-17.8,4.21a.79.79,0,0,0-.78.4,7.22,7.22,0,0,0-.42,1c-.06.16-.09.4.08.49s.27-.14.36-.27A6.38,6.38,0,0,0,13.53,55.51ZM50.24,14c-.06,0-.12,0-.14.07a.31.31,0,0,0,.14.31l1.85,1.43a.22.22,0,0,0,.34-.06c.08-.12,0-.23-.1-.3-.65-.36-1.19-.89-1.81-1.3A.59.59,0,0,0,50.24,14Zm-17.6,26.8a1.94,1.94,0,0,0-.34,2.32A3.68,3.68,0,0,0,32.64,40.77Zm-2.93,1.29a4.16,4.16,0,0,0-.13,2.16c0,.06,0,.15.1.16s.11-.07.15-.13a2.3,2.3,0,0,0,0-2.09S29.8,42.05,29.71,42.06Zm3.93,2.1a2.13,2.13,0,0,0,.22,2.44C33.74,45.79,34.09,44.94,33.64,44.16Zm8,16.43c.16,0,.35,0,.39-.15s-.12-.23-.25-.3-.36-.22-.55-.32a1.11,1.11,0,0,0-.89-.09c-.16,0-.22.11-.07.23A2,2,0,0,0,41.63,60.59ZM30.43,42.25a2.14,2.14,0,0,0-.32-2.41A4.42,4.42,0,0,0,30.43,42.25ZM27.67,60.5a1.77,1.77,0,0,0,1.59,1.09c.09,0,.21,0,.26-.07s-.05-.19-.12-.27C28.94,60.73,28.26,60.72,27.67,60.5Zm-3.39-9.94c0-.07,0-.15-.05-.19s-.15,0-.22.05c-.56.29-.63.88-.78,1.41-.06.25.11.21.26.12A1.56,1.56,0,0,0,24.28,50.56Zm1.73,11c.23,0,.29-.05.23-.19a3,3,0,0,0-1.51-1c-.11,0-.14.05-.11.16A1.73,1.73,0,0,0,26,61.52Zm7-16.85a5.27,5.27,0,0,0,.18-1.92c0-.1,0-.24-.16-.25s-.13.13-.17.21A1.63,1.63,0,0,0,33,44.67Zm9.22,14.68-.26,0c-.16,0-.17.14,0,.22a1.88,1.88,0,0,0,1.47.49c.12,0,.3,0,.31-.17s-.14-.21-.25-.28A2.53,2.53,0,0,0,42.26,59.35ZM11,15.67a.31.31,0,0,0,.1-.05c.57-.56,1.13-1.12,1.68-1.69.07-.07.12-.17,0-.25s-.17,0-.24.07l-1,.91c-.23.21-.45.43-.66.65a.25.25,0,0,0-.07.26A.16.16,0,0,0,11,15.67Zm13.3,45.64c.08,0,.2.06.24-.06s-.05-.15-.11-.21l-.3-.3a1.83,1.83,0,0,0-1-.6c-.18,0-.23,0-.15.19C23.28,60.91,23.57,61.32,24.28,61.31ZM9.41,14.09c.05,0,.16-.08.24-.14.64-.44,1.32-.83,1.93-1.31.1-.08.31-.13.19-.31s-.25,0-.37,0a10.78,10.78,0,0,1-1,.73,6.75,6.75,0,0,0-1,.76.17.17,0,0,0-.09.18C9.27,14.09,9.31,14.11,9.41,14.09ZM27.49,61.54c.07,0,.23.08.28-.08s-.07-.21-.16-.28l-.56-.44a1.52,1.52,0,0,0-.73-.33c-.14,0-.28.05-.15.2C26.5,61.05,26.82,61.53,27.49,61.54ZM30.42,67c0-.16,0-.29-.09-.29s-.15.11-.18.23A12.9,12.9,0,0,1,29.66,69a.71.71,0,0,0,0,.21.21.21,0,0,0,.16.25c.16,0,.18-.08.19-.19Zm1.42-6.55v-.11c0-.09.05-.22-.05-.26s-.19.07-.25.15l-.47.63a1.27,1.27,0,0,0-.21.6.23.23,0,0,0,.13.24.19.19,0,0,0,.23-.06A1.7,1.7,0,0,0,31.84,60.44Zm-12.71-.21a2.21,2.21,0,0,0-1.46-1.29c-.06,0-.12,0-.16,0s0,.11,0,.16A2.72,2.72,0,0,0,19.13,60.23Zm12.94,6.46H32s0,.06,0,.09A17.27,17.27,0,0,0,32,69.47c0,.09,0,.22.2.2s.15-.15.15-.25c0-.27-.07-.55-.1-.82C32.21,68,32.14,67.32,32.07,66.69ZM25.82,49.52c0-.19.06-.38-.09-.44s-.23.14-.32.23a1.86,1.86,0,0,0-.48,1.17c0,.06,0,.16.05.18s.11,0,.16,0C25.51,50.32,25.85,50,25.82,49.52Zm-5,3.2a9.34,9.34,0,0,0-.93.61,1.55,1.55,0,0,0-.4.62.23.23,0,0,0,0,.2c0,.08.12.05.19,0A1.66,1.66,0,0,0,20.82,52.72ZM31.75,51a.32.32,0,0,0-.13.29l-.12,3.39c0,.1,0,.24.14.24s.11-.15.11-.25c0-1,0-2.1.09-3.14A.72.72,0,0,0,31.75,51Zm-.17-11.58a3.51,3.51,0,0,0,.59-2A1.73,1.73,0,0,0,31.58,39.41ZM21.15,59.83c.1.27.2.45.45.48.08,0,.11,0,.14.13a1,1,0,0,0,.91.53c.05,0,.13,0,.15-.06a.18.18,0,0,0-.06-.15c-.15-.17-.32-.31-.47-.48A1.48,1.48,0,0,0,21.15,59.83Zm10.19-26c.14-.16.25-.3.37-.42a.83.83,0,0,0,.14-1c-.06-.12-.1-.26-.25-.27s-.19.16-.24.27A2.69,2.69,0,0,0,31.34,33.86ZM44.85,59.62a.47.47,0,0,0,.35-.14c0-.07,0-.13,0-.19a1.69,1.69,0,0,0-1.42-.43c-.1,0-.19.11-.07.2A2.25,2.25,0,0,0,44.85,59.62ZM31.39,69.57a1.52,1.52,0,0,0,.13-.47,15.31,15.31,0,0,1,0-2.14c0-.1.05-.29-.1-.3s-.16.19-.17.31a15.54,15.54,0,0,0-.06,1.67A1.4,1.4,0,0,0,31.39,69.57Zm.38-10.66a3.34,3.34,0,0,0-.07-.33q0-.16-.18-.06a2,2,0,0,0-.6,1.35c0,.13.06.16.18.11A1.33,1.33,0,0,0,31.77,58.91Zm-1.1-25.66a1,1,0,0,0-.11-.66c-.09-.27-.27-.3-.51-.2a.33.33,0,0,0-.16.53,2.6,2.6,0,0,0,.6.64c.11.1.19.06.18-.1Zm-.75,27.3c-.14,0-.31,0-.37.12s.07.27.17.37a6.17,6.17,0,0,0,.46.43c.17.12.3.12.37-.12C30.68,60.85,30.45,60.55,29.92,60.55Zm1.9-19.44A3.54,3.54,0,0,0,32.26,40a1.54,1.54,0,0,0,.15-.69c0-.08,0-.18-.12-.2s-.1.09-.13.15a3.47,3.47,0,0,0-.41,1A1.33,1.33,0,0,0,31.82,41.11ZM43.16,52.56c.34.71.59,1.37,1.47,1.45A2.93,2.93,0,0,0,43.16,52.56Zm-11.72-15A2.34,2.34,0,0,0,32,35.6,2,2,0,0,0,31.44,37.53ZM33,36.32l.24-.16a21.86,21.86,0,0,1,1.91-1.41c.1,0,.24-.13.15-.27s-.25,0-.33.05a3.08,3.08,0,0,1-1,.77c-.36.22-.68.48-1,.72a.22.22,0,0,0-.1.22C32.92,36.3,33,36.32,33,36.32Zm-2.8,1.6a1.8,1.8,0,0,0,.58,1.9A3,3,0,0,0,30.24,37.92ZM45.62,58.33l-.4.1c-.11,0-.16.12-.07.21a1.72,1.72,0,0,0,.75.53c.23.06.46-.1.42-.28A1,1,0,0,0,45.62,58.33Zm-32.21-1c0-.1,0-.28-.12-.35s-.21.1-.31.17a3.92,3.92,0,0,0-.55.6c-.11.13-.12.27.1.32A.92.92,0,0,0,13.41,57.34ZM30,33.8a1.68,1.68,0,0,0,.67,1.68C30.86,34.75,30.44,34.31,30,33.8Zm3.28,4.43c-.1,0-.16,0-.18.07a.27.27,0,0,0,.14.33l1.14.83a.71.71,0,0,0,.37.2c.06,0,.12,0,.15-.06s0-.1-.06-.14c-.45-.42-1-.69-1.44-1.15A.42.42,0,0,0,33.26,38.23Zm-3.08-2.37a1.43,1.43,0,0,0,.63,1.66A2.14,2.14,0,0,0,30.18,35.86Zm.4,33.66a7.09,7.09,0,0,0,.25-2.8A12,12,0,0,0,30.58,69.52Zm.81-33.87a2.09,2.09,0,0,0,.6-1.79C31.6,34.42,31.19,34.88,31.39,35.65Zm-.48,20.57s0,.17,0,.3.11.19.2.09a1.19,1.19,0,0,0,.5-.71c0-.22-.07-.31-.26-.34S30.92,55.66,30.91,56.22Zm1.6-5.2a38.26,38.26,0,0,0,.68,3.85C32.83,53.61,33,52.27,32.51,51Zm-1.35,7.15a1,1,0,0,0,.52-1.12c0-.08,0-.19-.08-.22s-.14.06-.2.12A1.17,1.17,0,0,0,31.16,58.17Zm.44-14.1a1.55,1.55,0,0,0-.52.86c0,.26.12.31.34.35s.31-.07.3-.28A2.77,2.77,0,0,0,31.6,44.07ZM29.94,23.41a1.54,1.54,0,0,0,0,.17.93.93,0,0,0,0,.24c0,.1,0,.24.18.23s.1-.15.1-.24,0-.33,0-.5.11-.37.37-.26c.09,0,.16.14.24,0a.34.34,0,0,0,0-.2.17.17,0,0,0-.21-.15,1,1,0,0,1-.38,0c-.23-.05-.27.07-.27.25Zm10.2,7.93c-.08-.14-.13-.32-.34-.23a2,2,0,0,0-.72.5c-.07.07-.15.17,0,.28a.22.22,0,0,0,.29.05,2.79,2.79,0,0,0,.71-.46A1.71,1.71,0,0,0,40.14,31.34ZM28.36,40.89a2.55,2.55,0,0,0,1-.81c0-.09,0-.25-.12-.16a3.75,3.75,0,0,0-1,.67.19.19,0,0,0,0,.2C28.2,40.88,28.29,40.86,28.36,40.89Zm3.76,10.54c.05.47.11.85.13,1.24,0,.63,0,1.26,0,1.9,0,.1,0,.28.13.27s.09-.18.09-.28c0-.9-.22-1.77-.22-2.67A.64.64,0,0,0,32.12,51.43ZM26.91,34s-.09,0-.1,0,0,.14.07.19c.34.28.69.56,1.05.83.06,0,.18.12.25,0a.2.2,0,0,0-.07-.28,5.29,5.29,0,0,0-.87-.62A3.54,3.54,0,0,1,26.91,34Zm6.28,5.34a.11.11,0,0,0-.1.08c-.11.28.23.84.52.81s.38,0,.39-.26A2.8,2.8,0,0,0,33.19,39.3Zm-5.77-3.76a.7.7,0,0,0-.23-.35l-.63-.46c-.06,0-.12-.14-.2,0a.17.17,0,0,0,0,.23,3.51,3.51,0,0,0,.81.73C27.29,35.73,27.38,35.67,27.42,35.54Zm12.42-3c.25-.11.53-.19.6-.53a.25.25,0,0,0-.07-.26c-.09-.08-.18,0-.25,0l-.45.4a.21.21,0,0,0,.17.36ZM17.37,59.72a1.19,1.19,0,0,0-.51-.72c-.11-.08-.25,0-.36.09a.26.26,0,0,0-.08.29c0,.16.17.14.28.14A1.61,1.61,0,0,1,17.37,59.72ZM55.94,33.28l-.11,0c0,.31,0,.61,0,.92,0,.11,0,.28.14.29s.2-.14.25-.29C56.35,33.83,56,33.61,55.94,33.28Zm-24.7,7.5a2,2,0,0,0-.26,1c0,.12-.06.31.1.34s.24-.19.26-.33A3.15,3.15,0,0,0,31.24,40.78ZM60.57,30.53v.34c0,.07-.08.18,0,.21s.16-.09.17-.18c0-.33,0-.66.07-1,0-.06,0-.16-.06-.18s-.14.08-.17.15S60.63,30.27,60.57,30.53Zm-54,4.83a3.24,3.24,0,0,0,0-.88,2.19,2.19,0,0,0,0-.51.14.14,0,0,0-.17-.13c-.1,0-.08.11-.07.18,0,.33.06.66.11,1C6.45,35.14,6.41,35.28,6.6,35.36ZM31.85,22.77a2.42,2.42,0,0,0,0,1.28.12.12,0,0,0,.11.11c.05,0,.1,0,.09-.09A2.9,2.9,0,0,0,31.85,22.77ZM.16,30.61a4.2,4.2,0,0,0,.08-1.32.13.13,0,0,0-.1-.13c-.05,0-.08,0-.1.08A2.56,2.56,0,0,0,.16,30.61Zm31.17-7.75c-.23.34-.1.71-.16,1.05,0,.09,0,.25.15.24s.15-.15.14-.25C31.43,23.55,31.37,23.21,31.33,22.86ZM8.11,35.13l-.11,0c0,.36-.08.72-.1,1.08a.19.19,0,0,0,.15.22c.11,0,.08-.13.09-.2A5.55,5.55,0,0,0,8.11,35.13Zm-7.19-4A2.47,2.47,0,0,0,1,29.8,2.13,2.13,0,0,0,.92,31.12Zm8.69,6.41c-.12-.44.17-.89,0-1.35A1.4,1.4,0,0,0,9.61,37.53Zm21.51,5.84c0,.07,0,.27.16.15a.75.75,0,0,0,.34-.63c0-.09-.05-.24-.16-.12A.84.84,0,0,0,31.12,43.37ZM11.05,37.5a1.5,1.5,0,0,0,.1,1.21A2.17,2.17,0,0,0,11.05,37.5Zm39.64-1.2c-.08.36-.16.73-.23,1.1,0,.08,0,.16.06.19s.13-.08.15-.15A3.12,3.12,0,0,0,50.69,36.3Zm.76.23a2.26,2.26,0,0,0-.17,1.31A2.27,2.27,0,0,0,51.45,36.53Zm6.12-3.28c.27-.37.14-.73.18-1.06,0-.06,0-.16-.09-.16s-.12.09-.12.16A3.2,3.2,0,0,0,57.57,33.25ZM10.27,36.8c-.2.87-.2,1,.05,1.22A3.83,3.83,0,0,0,10.27,36.8Zm49.6-6.4a1.82,1.82,0,0,0-.13,1.08C60.06,31.15,59.94,30.77,59.87,30.4Zm-56,1.73c-.07.33-.14.66-.2,1,0,.09,0,.19.1.21s.12-.11.13-.18A2.08,2.08,0,0,0,3.88,32.13Zm3.44,3.72a3.73,3.73,0,0,0,0-1.29C7.27,35,7.07,35.43,7.32,35.85Zm46.42-1a1.6,1.6,0,0,0,0,1.14A1.45,1.45,0,0,0,53.74,34.88ZM2.47,31H2.38c0,.38-.1.77-.14,1.15,0,.08,0,.19.12.2s.1-.12.1-.18C2.47,31.78,2.47,31.39,2.47,31Zm47.44,5.83a1.77,1.77,0,0,0,.2-1.31A3.71,3.71,0,0,0,49.91,36.83Zm4.57-1.42a1.52,1.52,0,0,0,0-1.07A1.86,1.86,0,0,0,54.48,35.41Zm-42.8,1.52-.1,0c0,.26.07.53.12.79,0,.07,0,.16.12.14s.09-.11.08-.18A1.57,1.57,0,0,0,11.68,36.93ZM3.18,31.7c0,.37-.29.72-.11,1.12A2,2,0,0,0,3.18,31.7ZM1.77,30.38a1.77,1.77,0,0,0-.07,1.4C1.73,31.29,1.75,30.83,1.77,30.38Zm56.54,2.35a1.66,1.66,0,0,0,.07-1.18A2.94,2.94,0,0,0,58.31,32.73Zm-5.37,3.92a1.9,1.9,0,0,0,.06-1.3A5.41,5.41,0,0,0,52.94,36.65Zm-4.2-3.19a1.33,1.33,0,0,0-.23,1.19A3.4,3.4,0,0,0,48.74,33.46Zm-34.42,1a1.61,1.61,0,0,0-.12-.87c0-.06-.06-.15-.14-.12s-.05.12,0,.19A2.1,2.1,0,0,0,14.32,34.49Zm-.62.76a1.44,1.44,0,0,0-.13-1A1.34,1.34,0,0,0,13.7,35.25Zm45.28-3A1.47,1.47,0,0,0,59,31.05C59,31.46,59,31.87,59,32.27ZM12.22,36.09a1.21,1.21,0,0,0,.19,1A1.65,1.65,0,0,0,12.22,36.09Zm49.43-6.57a.94.94,0,0,0-.1.86A.86.86,0,0,0,61.65,29.52ZM32.56,61.71c.08,0,.24,0,.22-.09s-.22-.29-.4-.33-.14.07-.13.15S32.38,61.7,32.56,61.71ZM55.18,35a1.36,1.36,0,0,0,0-1.2A6,6,0,0,0,55.18,35Zm-3,1a2,2,0,0,0,0,1A2.15,2.15,0,0,0,52.19,36ZM4.58,32.77a2.52,2.52,0,0,0-.12,1C4.66,33.45,4.53,33.09,4.58,32.77ZM8.75,36a1.47,1.47,0,0,0,.06.94C8.82,36.62,9,36.32,8.75,36Zm40.38-1.58a1.31,1.31,0,0,0-.19.73C49,34.86,49.18,34.67,49.13,34.39ZM30.89,24c0-.07,0-.18-.15-.18s-.14.08-.15.17,0,.19.15.19S30.88,24.1,30.89,24Zm16.86,9.86a1,1,0,0,0,.19-.65A.65.65,0,0,0,47.75,33.85ZM19.88,33a.55.55,0,0,1-.62-.31c-.14-.2-.26-.43-.4-.63s-.14-.31-.29,0c-.05.1-.12,0-.15-.06-.16-.21-.22-.54-.61-.47-.09,0-.11-.15-.16-.22s-.12-.42-.43-.29c-.1,0-.11-.17-.19-.23s-.12-.33-.31-.19a.33.33,0,0,0,0,.46c.12.16.25.32.38.47a9.57,9.57,0,0,0,1.53,1.59A3.3,3.3,0,0,0,22.66,33a7.12,7.12,0,0,0,2.13-2.95,20.45,20.45,0,0,0,1-2.87,19.14,19.14,0,0,0,.33-2c0-.16,0-.29-.2-.3-.77,0-1.24-.6-1.78-1-.29-.23-.14-.62.05-.85a1.65,1.65,0,0,0,.22-1.75C24,20,23.57,18.75,23,17.53a2.45,2.45,0,0,1-.16-.7.29.29,0,0,1,.13-.3.58.58,0,0,0,.23-.61,4.79,4.79,0,0,0-.46-1.61L22,12.62c-.05-.12-.16-.25,0-.36s.2,0,.3.09c.28.17.42.1.49-.24a7.89,7.89,0,0,0,0-2.61c-.08-.58-.16-1.16-.23-1.74,0-.11,0-.24.1-.28s.18.08.24.17c.22.35.4.39.69.09a18.2,18.2,0,0,1,3.11-2.36A7.87,7.87,0,0,1,29,4.58a7.17,7.17,0,0,1,2.3-.3,11.3,11.3,0,0,1,2.45.55,11.65,11.65,0,0,1,3.42,1.79,14.18,14.18,0,0,1,1.32,1.14.49.49,0,0,0,.44.16c.25-.06.33.06.33.3,0,1,.05,2,.07,2.95,0,.25,0,.44.34.47s.19.27.14.41a14.91,14.91,0,0,0-.38,1.46c-.15.74-.27,1.48-.41,2.22,0,.19,0,.34.21.33s.26.14.21.33A7.68,7.68,0,0,1,38.69,18a20.93,20.93,0,0,0-1.39,3.6,1,1,0,0,0,.1.86l.29.49a.94.94,0,0,1-.45,1.45,6.13,6.13,0,0,1-.61.18c-.13,0-.27.13-.38,0a.44.44,0,0,1,0-.51c.1-.16.36-.26.2-.51s-.38-.62-.78-.69c-.66-.12-1.32-.24-2-.38a16.81,16.81,0,0,0-2-.25,2.11,2.11,0,0,0-.92.19,6,6,0,0,1-1.34.09c-.09,0-.18,0-.22.08s0,.15.11.2.13.23.14.37a14.74,14.74,0,0,1-.75,4.37c-.14.48-.19,1-.29,1.48a17,17,0,0,1-.94,2.62,6.79,6.79,0,0,1-1,1.78,5.46,5.46,0,0,1-3.09,2.21,4.85,4.85,0,0,1-3.65-.44,6.54,6.54,0,0,1-1.82-1.53,9.34,9.34,0,0,1-1.82-4.25c0-.08,0-.16.05-.2a.14.14,0,0,1,.19.05c.12.36.51.39.74.64s.5.25.59.56c.46,0,.68.44,1.08.54a.35.35,0,0,1,.28.33A2.11,2.11,0,0,0,19.88,33ZM27.69,9.9a7.33,7.33,0,0,0-1.81.34,3.7,3.7,0,0,0-1,.21,5.6,5.6,0,0,1-1.16.43.61.61,0,0,0-.47.44,3.28,3.28,0,0,0-.11,1.21c0,.13.06.19.21.16a.69.69,0,0,1,.79.43.65.65,0,0,1-.4.79c-.12.06-.26.1-.22.27a.34.34,0,0,0,.35.25,1.14,1.14,0,0,0,1-.39c.13-.15.21-.37.4-.44s.34.17.52.26a.73.73,0,0,0,.81-.15.44.44,0,0,0-.23-.73c-.19-.05-.43-.06-.48-.31s.14-.34.31-.43.15-.25.09-.4a.39.39,0,0,1,.14-.54.59.59,0,0,1,.67,0c.19.13.15.31.09.48s-.06.32.17.38.2.28.22.45-.13.21-.27.24-.24.2-.15.4a.82.82,0,0,0,1.41,0c.24-.37.28-.37.54,0a.69.69,0,0,0,1.19,0c.21-.33.17-.43-.2-.55-.2-.07-.38-.15-.4-.43s.15-.4.38-.48a1.17,1.17,0,0,1,.2-.06c.14,0,.17-.11.11-.24a.3.3,0,0,1,.13-.45c.17-.09.36-.23.56-.09s.09.35,0,.53a.25.25,0,0,0,.15.36.58.58,0,0,1,.32.69c-.08.29-.34.18-.54.14s-.29,0-.23.25a.73.73,0,0,0,.49.65.77.77,0,0,0,.85-.23c.15-.19.29-.23.49,0a.92.92,0,0,0,.84.26c.27,0,.51-.08.58-.37s-.18-.34-.36-.44a.55.55,0,0,1-.28-.51c0-.21.18-.26.35-.3a.27.27,0,0,0,.23-.34c0-.18,0-.3.2-.36a.54.54,0,0,1,.57.11.31.31,0,0,1,.05.42c-.08.16-.07.36.12.42s.27.29.22.49-.27.2-.44.2-.23-.09-.3.07a.46.46,0,0,0,.06.45,1,1,0,0,0,1.38.18c.23-.19.36-.16.5.12a1.94,1.94,0,0,0,1.89.79.46.46,0,0,0,.16-.07.48.48,0,0,0,.18-.54c-.07-.24-.25-.18-.42-.14s-.27.07-.34-.08a.83.83,0,0,1,.6-1,.27.27,0,0,0,.26-.2,3.31,3.31,0,0,0,.17-.69.65.65,0,0,0-.39-.77,16,16,0,0,0-1.8-.63,23.21,23.21,0,0,0-3.08-.49,9,9,0,0,0-1.94-.14c-.41,0-.83.05-1.24,0a6.64,6.64,0,0,0-2.22.13A1.46,1.46,0,0,1,27.69,9.9Zm1.09,4.31a13.34,13.34,0,0,0-4.35.93,1.41,1.41,0,0,0-.9.94,1.87,1.87,0,0,0,.12.88c.07.4.13.43.45.18.13-.11.28-.27.47-.13a.63.63,0,0,1,.3.54.45.45,0,0,1-.35.42l-.27.07c-.09,0-.21,0-.23.13s.1.16.17.22a1,1,0,0,0,1.5-.2.64.64,0,0,1,.87-.17.67.67,0,0,0,1-.49c.09-.29,0-.41-.28-.32a.35.35,0,0,1-.47-.19.37.37,0,0,1,.13-.51c.15-.12.25-.21.21-.44s.27-.47.58-.45.32.22.27.46,0,.3.22.29a.27.27,0,0,1,.29.33c0,.17-.07.43-.37.38-.14,0-.27,0-.32.13a.42.42,0,0,0,.07.44c.4.47.61.5,1,0,.24-.25.41-.33.71-.1.47.35.88.15,1-.44.06-.24.06-.4-.25-.42s-.23-.24-.27-.4.06-.25.23-.27.18-.18.19-.33.23-.32.43-.34a.29.29,0,0,1,.32.34.48.48,0,0,0,.28.52.37.37,0,0,1,.19.46.39.39,0,0,1-.47.22c-.25,0-.37.12-.29.36a.73.73,0,0,0,.95.46.82.82,0,0,1,.79,0,1.06,1.06,0,0,0,.66.06c.28,0,.37-.23.43-.46s-.15-.23-.28-.3a.54.54,0,0,1-.34-.51c0-.24.22-.25.4-.27s.19-.14.24-.27a.6.6,0,0,1,.81-.27c.1.06.17.13.12.23s0,.35.16.47a.56.56,0,0,1,.07.67c-.11.24-.31.07-.47,0s-.28,0-.29.22a.78.78,0,0,0,.94.8,1.46,1.46,0,0,0,.63-.29c.16-.14.31-.17.34.11a.4.4,0,0,0,.31.38l.83.32a.33.33,0,0,0,.46-.15,3.48,3.48,0,0,0,.23-.64c0-.12,0-.18-.17-.15a1.2,1.2,0,0,0-.27.08c-.28.14-.43,0-.54-.24a.46.46,0,0,1,0-.62.42.42,0,0,1,.64,0c.2.22.36.14.48,0a1.27,1.27,0,0,0,.21-1.28.46.46,0,0,0-.22-.27c-.32-.13-.62-.29-.95-.4a21.51,21.51,0,0,0-3.2-.61,13,13,0,0,0-2.42-.25C30.68,14.09,29.73,14.15,28.78,14.21ZM27.19,7.05c.35,0,.5,0,.43.33s0,.22.16.23c.35,0,.39.3.38.54s-.26.28-.49.28-.33,0-.28.18,0,.41.28.54A.9.9,0,0,0,28.89,9c.14-.13.21-.15.37,0,.48.41.85.34,1.23-.17.06-.08.14-.14.2-.21s.1-.38-.11-.45S30.27,8,30.1,8s-.28-.17-.25-.35.09-.35.31-.38.18-.1.21-.24A.45.45,0,0,1,31,6.56c.33.06.45.22.43.58a.5.5,0,0,0,0,.21c.21.58.19.63-.29.93s-.35.42,0,.67a.92.92,0,0,0,1.18,0c.1-.07.17-.2.33-.07.66.48.86.47,1.51-.06.13-.1.18-.09.28.06a1.12,1.12,0,0,0,1.55.48c.16-.06.31-.08.4.09a.91.91,0,0,0,.6.35c.29.08.58.18.87.28s.44.22.55-.06-.19-.26-.35-.33-.31-.2-.29-.41-.14-.54.2-.69c.16-.08.19-.16,0-.28s-.2-.2-.32-.29a16.06,16.06,0,0,1-1.55-1.2,5.7,5.7,0,0,0-1.93-1.09A11.29,11.29,0,0,0,32,5.06a7,7,0,0,0-2.41,0,12.63,12.63,0,0,0-2.17.66c-.27.1-.59,0-.81.3a2.64,2.64,0,0,1-.84.58,9.16,9.16,0,0,0-1.66,1.3c-.14.11-.17.28-.25.43a.23.23,0,0,0,.07.29.61.61,0,0,1,0,1c-.1.08-.3.11-.22.31s.23.18.39.19a1,1,0,0,0,.42,0c.28-.13.69,0,.81-.42s.24-.47.63-.28.82.09,1.17-.34a.39.39,0,0,0,0-.47c-.09-.14-.24-.11-.36-.06s-.41.14-.51-.11a.48.48,0,0,1,.21-.62c.09-.06.22-.08.2-.22C26.63,7,27,7.1,27.19,7.05Zm2.22,12.06-1,.12a13.41,13.41,0,0,0-3.44.94.46.46,0,0,0-.29.57,5.26,5.26,0,0,0,.25,1c.13.42.22.47.64.34s1-.33,1.53-.43,1.06-.16,1.58-.25a13.4,13.4,0,0,1,3.28-.23,18.18,18.18,0,0,1,4.33.68c.28.09.42,0,.51-.28a9.5,9.5,0,0,1,.34-1c.18-.33.13-.45-.23-.58a18.32,18.32,0,0,0-6.48-1A5.66,5.66,0,0,1,29.41,19.11Zm1.82-1a25.15,25.15,0,0,0-3.87.43,10.75,10.75,0,0,0-2.09.56c-.19.07-.55.14-.48.36s.4,0,.61,0a20.69,20.69,0,0,1,5.53-.84,22.39,22.39,0,0,1,5.57.82c.18,0,.46.23.53,0s-.25-.34-.47-.4A21.93,21.93,0,0,0,31.23,18.07ZM31,21.54a21.29,21.29,0,0,0-4.18.58,8.27,8.27,0,0,0-1.51.62.74.74,0,0,0-.49.69c0,.08,0,.18.1.2s.12-.06.15-.13a1,1,0,0,1,.56-.52,13.69,13.69,0,0,1,4.51-1,15.77,15.77,0,0,1,3.5.15,7.59,7.59,0,0,1,2.92.94c.09.06.2.2.3,0s0-.21-.12-.3a3,3,0,0,0-1.41-.7A14.35,14.35,0,0,0,31,21.54Zm-4.41,2.92c0-.13.07-.25.09-.37s.05-.41.08-.61,0-.24.19-.26.17.1.2.21.07.25.11.37,0,.16.14.05-.12-.27,0-.44.06-.43.33-.37.09.29.11.43-.07.51.11.73c0,.06.09.16.19.14s.09-.14.09-.21l0-.93c0-.13-.06-.29.08-.36s.25,0,.35.12.26.11.31-.11-.07-.33-.39-.28a3.28,3.28,0,0,1-1.06.18,1,1,0,0,0-.69.05c-.22.09-.41.23-.63.31a1.28,1.28,0,0,0-.67.7.23.23,0,0,0,.06.32.51.51,0,0,0,.47.11c.17,0,.05-.2.06-.3a2.09,2.09,0,0,1,0-.25c0-.11,0-.2.16-.21s.14.11.16.19A1.79,1.79,0,0,0,26.59,24.46Zm.78,6.6c0-.09,0-.19-.08-.23s-.15.06-.2.12-.12.17-.18.27c-.31.52-.6,1.05-.93,1.56a4.36,4.36,0,0,1-1.67,1.52c-.11.06-.38.16-.29.33s.3,0,.45,0a5.09,5.09,0,0,0,1.64-1.33,9.67,9.67,0,0,0,1.13-1.84A1.55,1.55,0,0,0,27.37,31.06Zm.84-6.23c0-.16,0-.34-.18-.34s-.16.19-.17.32,0,.53,0,.79c0,.08,0,.15.1.15s.09-.06.1-.12C28.11,25.36,28.16,25.1,28.21,24.83Zm.35-1.08c0,.17,0,.28.06.4s.05.23.18.23.13-.14.16-.24a1.59,1.59,0,0,0-.12-.62c0-.07,0-.16-.09-.17s-.12.1-.14.17A1.64,1.64,0,0,0,28.56,23.75Zm0,2.8a1.23,1.23,0,0,0,.22-.69c0-.07,0-.15-.1-.16s-.12.06-.15.13A1.36,1.36,0,0,0,28.52,26.55Z"></path><path d="M60.26,49.57a6.49,6.49,0,0,1-.59,3.26,11.9,11.9,0,0,1-1.54,3c-.27.31-.57.57-.85.86A13.63,13.63,0,0,1,56,58a9,9,0,0,1-2,1.29,7,7,0,0,1-4.21.63,8.42,8.42,0,0,1-2.32-.76,3.5,3.5,0,0,1-1.31-1.31,6.25,6.25,0,0,1-.76-2.4c0-.11-.08-.28.08-.31a.32.32,0,0,1,.35.2,5.53,5.53,0,0,1,.28.81A3,3,0,0,0,47,57.66a4.68,4.68,0,0,0,1.92,1.25c.34.08.65.29,1,.35a4,4,0,0,0,2.89-.58l.15-.1c1.7-.64,2.42-2.08,2.89-3.69a1.11,1.11,0,0,1,.67-.83,5.19,5.19,0,0,0,2.24-2.23,4.58,4.58,0,0,0,.66-2.52,5.46,5.46,0,0,0-.74-3,5.35,5.35,0,0,0-2.41-2.09,3.73,3.73,0,0,0-3.94.36,2.18,2.18,0,0,0-1,1.86.85.85,0,0,0,.63.73c.07,0,.15,0,.19-.06s0-.11,0-.16a1.25,1.25,0,0,1,.2-1.58,3,3,0,0,1,2.83-.89,4.28,4.28,0,0,1,3.36,3,4.28,4.28,0,0,1,.23,2.66,5.27,5.27,0,0,1-2.06,3,1.81,1.81,0,0,1-.69.35.56.56,0,0,0-.48.5,6.23,6.23,0,0,1-1.11,2.54A4.86,4.86,0,0,1,52,58.46a3.9,3.9,0,0,1-2.48,0A4.49,4.49,0,0,1,47.27,57a3.4,3.4,0,0,1-.49-1.1c0-.08,0-.18,0-.23s.18,0,.26.06a1.11,1.11,0,0,1,.2.37,2.34,2.34,0,0,0,1,1.27s.1,0,.12.07c.44.78,1.25.68,1.93.75a3.75,3.75,0,0,0,3.52-1.65,4.83,4.83,0,0,0,1.15-3c0-.3.11-.5.42-.5a2.54,2.54,0,0,0,2.05-1.36,4.37,4.37,0,0,0,.13-4.85c-.84-1.53-2.24-1.9-3.8-1.94-.56,0-.85.51-1.19.88a.53.53,0,0,0,0,.83,1.16,1.16,0,0,1,.15,1.1c-.12.44-.18,1-.74,1.08a1.4,1.4,0,0,1-1.56-.38A2.62,2.62,0,0,1,50,45.89a3.64,3.64,0,0,1,1.93-2.14,7.58,7.58,0,0,1,1.7-.69,4.87,4.87,0,0,1,4.79,1.28,6.07,6.07,0,0,1,1.7,3.39A10.66,10.66,0,0,1,60.26,49.57ZM59.15,53c0-.12,0-.23-.14-.26s-.24,0-.3.17c-.18.38-.36.76-.55,1.14a6,6,0,0,1-1,1.48c-.41.43-.76.91-1.2,1.32a.24.24,0,0,0-.08.32c.09.14.23.12.35,0a2,2,0,0,0,.36-.29,12.26,12.26,0,0,0,2-2.61A4.2,4.2,0,0,0,59.15,53Z"></path><path d="M37.87,39.65c-.18-.4-.36-.81-.55-1.27a1.92,1.92,0,0,0-.1,1c0,.15.1.36-.17.39s-.36-.15-.38-.38a15.11,15.11,0,0,1,0-2.69c0-.11,0-.25.19-.27s.2.1.26.2a9.94,9.94,0,0,0,4.12,4A19,19,0,0,0,44,41.73a12.24,12.24,0,0,1,3.24,1.6,3.61,3.61,0,0,1,1.51,4.44,3.08,3.08,0,0,1-.31.88A3.56,3.56,0,0,1,46.77,50a3.27,3.27,0,0,1-3.38-.75,11.85,11.85,0,0,1-1.82-1.65,10.58,10.58,0,0,0-.94-1.16,4.13,4.13,0,0,1-1.1-1.48.69.69,0,0,0-.29-.3,3.13,3.13,0,0,1-.68-.68A7.26,7.26,0,0,0,36.5,42.1a4.71,4.71,0,0,0-2.13-.73l-.61-.06c-.12,0-.23-.05-.27-.19a.31.31,0,0,1,.1-.35,2.1,2.1,0,0,1,1.14-.47,5.32,5.32,0,0,1,2.9.22.55.55,0,0,0,.72-.18c.2-.26.32-.19.44.08.32.65.66,1.3,1,2a11.5,11.5,0,0,0,2.21,3,3.14,3.14,0,0,0,1.51,1,1,1,0,0,0,1.06-.29c.37-.44.29-.82-.13-1.39a4,4,0,0,0-2.87-1.54A1.87,1.87,0,0,1,40,41.86a23.65,23.65,0,0,0-1-2.15c-.09-.16-.19-.26-.36-.23a.37.37,0,0,1-.33-.16c-.07-.08-.15-.2-.26-.15s0,.19,0,.29,0,.11,0,.17ZM35.33,41c0,.19.14.19.24.23.28.11.58.21.86.33a7.69,7.69,0,0,1,3.12,2.81,21.22,21.22,0,0,0,3,3.77,6.3,6.3,0,0,0,2,1.36A2.89,2.89,0,0,0,47.29,49a2.48,2.48,0,0,0,1.18-2.12,3,3,0,0,0-1-2.64,10.74,10.74,0,0,0-2.28-1.36c-.84-.39-1.7-.73-2.54-1.12a17.79,17.79,0,0,0-2.12-1c-.08,0-.18-.13-.24,0s.06.15.12.19A7.21,7.21,0,0,0,42.09,42c1,.5,2,.93,3.06,1.42A5.11,5.11,0,0,1,47.44,45a2.78,2.78,0,0,1,.6,1.87,2.44,2.44,0,0,1-3.48,2,7.24,7.24,0,0,1-2.45-2,27.61,27.61,0,0,1-1.93-2.62,10.63,10.63,0,0,1-1.43-2.63c0-.09-.09-.19-.2-.17s-.1.14-.1.23,0,.44.06.74A7.19,7.19,0,0,0,37,41.3,3.16,3.16,0,0,0,35.33,41Zm7.11,5.49.9,1A3.65,3.65,0,0,0,45,48.47a1.91,1.91,0,0,0,2.48-2.1,3.22,3.22,0,0,0-1.19-1.87,13.63,13.63,0,0,0-2.71-1.4,1,1,0,0,0-.71-.17,2.77,2.77,0,0,0,.81.55,8.09,8.09,0,0,1,2.77,1.89,3.37,3.37,0,0,1,.51.85A1.43,1.43,0,0,1,45.49,48,5.41,5.41,0,0,1,43,46.76,1.15,1.15,0,0,0,42.44,46.44Zm4,.05a1.44,1.44,0,0,0-.64-.93s-.14-.1-.21,0,0,.13,0,.19.21.33.3.49a.74.74,0,0,1,0,.76c-.15.22-.41.2-.65.18s-.28-.06-.42-.08-.17-.07-.22,0,0,.15.1.21a1,1,0,0,0,1.07.25A1.15,1.15,0,0,0,46.43,46.49Z"></path><path d="M24.59,40.41a3,3,0,0,1,.53-1,2.71,2.71,0,0,0,.4-1c0-.08.08-.18,0-.22s-.14.06-.18.14A11.41,11.41,0,0,1,24.23,40a.41.41,0,0,1-.55.13.87.87,0,0,0-.31-.1c-.19,0-.31,0-.3.29a3.13,3.13,0,0,1-.18.9A12.11,12.11,0,0,1,22.26,43a.62.62,0,0,1-.54.38,7.69,7.69,0,0,0-2.69.73,2.28,2.28,0,0,0-1.27,1.46.84.84,0,0,0,.88,1.12,3.45,3.45,0,0,0,2.45-1,7,7,0,0,0,1.65-2.35A15.06,15.06,0,0,0,23.52,41c.07-.33.26-.41.44-.15.44.65,1,.47,1.56.3a3.63,3.63,0,0,1,3.34.88,5.9,5.9,0,0,1-1.1.24,5.54,5.54,0,0,0-2,.57A4.27,4.27,0,0,0,24,44.44a24.17,24.17,0,0,1-2.74,3.47A18.06,18.06,0,0,1,19,50a4.17,4.17,0,0,1-1.59.68A3.63,3.63,0,0,1,14.51,50a2.78,2.78,0,0,1-1-1.37,3.79,3.79,0,0,1-.32-1.46,4.13,4.13,0,0,1,1.11-2.51,7.4,7.4,0,0,1,2.79-2c1.24-.56,2.52-1,3.73-1.66a14.64,14.64,0,0,0,2.86-1.67,3.56,3.56,0,0,0,1.22-1.53c.12-.36.41-.66.54-1,.05-.13.15-.09.23,0a1.34,1.34,0,0,1,.37.56,3.76,3.76,0,0,1-.14,2.25,5.46,5.46,0,0,1-.26.67.29.29,0,0,1-.33.21c-.17,0-.1-.18-.1-.29s0-.16,0-.19-.17,0-.23.06S24.71,40.28,24.59,40.41Zm-2.4.83a.15.15,0,0,0-.21-.06c-.41.16-.83.32-1.23.49-.67.28-1.3.64-2,.91a17.89,17.89,0,0,0-2.69,1.19,4.32,4.32,0,0,0-2.24,2.69A2.84,2.84,0,0,0,15.69,50a3.54,3.54,0,0,0,3-.44,12.17,12.17,0,0,0,2.65-2.32A31.33,31.33,0,0,0,23.76,44a4.61,4.61,0,0,1,1.72-1.62l1.29-.59c.1,0,.23-.08.2-.2s-.15-.09-.24-.09a2.76,2.76,0,0,0-1.13.27c-.33.19-.68.34-1,.52s-.4.1-.4-.23a.77.77,0,0,0,0-.15c0-.11-.05-.26-.18-.27s-.15.15-.17.26a8.22,8.22,0,0,1-1.63,3.31,19.75,19.75,0,0,1-2.65,3,6.74,6.74,0,0,1-2.2,1.19A2.15,2.15,0,0,1,15,48.76a1.66,1.66,0,0,1-.53-.92,2.92,2.92,0,0,1,.81-2.69c.3-.3.68-.48,1-.75A11.37,11.37,0,0,1,19,42.93,20.22,20.22,0,0,0,21,42.1,8.74,8.74,0,0,0,22.19,41.24ZM16.88,49a1.92,1.92,0,0,0,.8,0,5.36,5.36,0,0,0,1.44-.85.73.73,0,0,0,.26-.29c0-.09.06-.19,0-.27a.18.18,0,0,0-.23,0,4.32,4.32,0,0,0-.5.33,2.62,2.62,0,0,1-1.69.55,1.37,1.37,0,0,1-1.3-1,1.84,1.84,0,0,1,.63-1.9,9.53,9.53,0,0,1,2.06-1.44,10.57,10.57,0,0,1,2.46-1c.11,0,.32,0,.27-.2s-.24-.09-.37-.05l-.75.23a12.73,12.73,0,0,0-3.8,1.88A2.58,2.58,0,0,0,15,47.39a1.29,1.29,0,0,0,.34.82A1.88,1.88,0,0,0,16.88,49Zm.47-1.61a2.28,2.28,0,0,1-.37,0,.5.5,0,0,1-.46-.59c0-.11.13-.24,0-.32s-.27.05-.36.15a.53.53,0,0,0-.11.47,1,1,0,0,0,1.36.76c.17-.07.43-.14.4-.34S17.49,47.42,17.35,47.35Z"></path><path d="M43.55,31.78c.06-.2.13-.39.17-.59a1.37,1.37,0,0,1,.91-.89c.11-.05.19-.08.23-.19s.1-.18.2-.16.29-.09.34-.26.08-.24.22-.13.25.06.26-.11.21-.36.46-.32a6.65,6.65,0,0,1-.53,3.12,4.73,4.73,0,0,1-1.08,1.58A8.83,8.83,0,0,1,43,35.17a4.88,4.88,0,0,1-4.94.08,5,5,0,0,1-1.12-.54,7.41,7.41,0,0,1-2.45-3.43c-.14-.48-.51-.82-.63-1.29a16.92,16.92,0,0,1-.6-2.25,5.94,5.94,0,0,0-.29-1.1A14.21,14.21,0,0,1,32.63,24c0-.32-.07-.64-.11-1,0-.09-.06-.22.08-.23s.15.1.16.19c.09.51.15,1,.26,1.52s.29,1.2.44,1.8h.13L33.26,23l.09,0a8.7,8.7,0,0,0,.53,2.26c.13-.77-.09-1.47,0-2.16.3.64.25,1.37.61,2a8,8,0,0,0,.05-1.64c.27.32.24.63.37.88,0,.08,0,.22.16.2s.09-.16.09-.25,0-.38,0-.57,0-.25.1-.28a.24.24,0,0,1,.29.2,8.74,8.74,0,0,1,.24,1c.13,1,.35,2,.58,3a11.28,11.28,0,0,0,1.36,3.29,6.28,6.28,0,0,0,1.42,1.67A5.93,5.93,0,0,0,42,33.66a2.12,2.12,0,0,0,1-.19,4.55,4.55,0,0,0,2.37-1.57,3.27,3.27,0,0,0,.6-1.36c0-.1,0-.2-.1-.23a.19.19,0,0,0-.27.1,1.09,1.09,0,0,0-.07.24c0,.06,0,.17,0,.17-.24.05-.34.27-.5.39s-.31.13-.5.69c0,0-.05,0-.05,0s0-.35-.16-.36-.15.23-.18.35a2.11,2.11,0,0,1-.19.51c-.19-.18.05-.59-.35-.61Zm-9-1.31a2.52,2.52,0,0,0,.08.37,9.31,9.31,0,0,0,1,2.09,5.34,5.34,0,0,0,2.2,1.82c.09,0,.24.14.32,0s-.1-.2-.18-.27a9.78,9.78,0,0,1-1.77-1.75,6.44,6.44,0,0,1-1.2-2,2.3,2.3,0,0,0-.23-.4c0-.05-.08-.1-.14-.09S34.58,30.34,34.59,30.47Zm2-.85a2.68,2.68,0,0,0,.19,1.26,6.16,6.16,0,0,0,.84,1.45,3.65,3.65,0,0,0,1.51,1.21c.08,0,.16.09.23,0s0-.15-.08-.21L38.88,33a5.83,5.83,0,0,1-1.46-1.91A6.45,6.45,0,0,0,36.57,29.62Zm3.6,5.69v.09a5.15,5.15,0,0,0,1.36.05,5.56,5.56,0,0,0,2.65-1.33A4.38,4.38,0,0,0,45,33.3c.05-.09.11-.19.05-.26s-.16,0-.23.08-.39.34-.59.51a5.62,5.62,0,0,1-3.39,1.54A3.67,3.67,0,0,0,40.17,35.31Z"></path><path d="M56.93,20.81a1.44,1.44,0,0,1-.61,1,.66.66,0,0,1-.87-.16,4.61,4.61,0,0,1-.69-.95,12.3,12.3,0,0,0-1.43-1.77.65.65,0,0,1-.14-.79A1.19,1.19,0,0,1,55,17.74a4.51,4.51,0,0,1,1.9,2.61.74.74,0,0,1,0,.14C56.91,20.57,56.92,20.65,56.93,20.81Zm-1.3.07a.86.86,0,0,0,0-.13,4,4,0,0,0-1.51-2.06c-.06-.05-.15-.11-.22-.05s0,.18.06.24a8.5,8.5,0,0,1,1.23,1.69,3.27,3.27,0,0,0,.28.37c0,.06.1.08.15,0A.14.14,0,0,0,55.63,20.88Zm0-1.33s-.09,0-.07.11a1.89,1.89,0,0,0,.37.8c.06.07.13.05.17,0S55.88,19.58,55.66,19.55Z"></path><path d="M6.82,21.93a1.18,1.18,0,0,1-1.06-1.59A10.53,10.53,0,0,1,6.21,19a3.47,3.47,0,0,1,2-1.74,1.12,1.12,0,0,1,1.13.54.89.89,0,0,1-.3,1.06,6.3,6.3,0,0,0-1.59,2.29c-.07.17-.14.33-.22.49A.39.39,0,0,1,6.82,21.93Zm-.11-1.08c0,.11,0,.27.13.33s.13,0,.15-.11a6.58,6.58,0,0,1,1.6-2.39c.05,0,.13-.09.06-.17s-.11,0-.16,0a1,1,0,0,0-.23.11,4.56,4.56,0,0,0-1.47,1.84A1.1,1.1,0,0,0,6.71,20.85Zm0-1.29A1.18,1.18,0,0,0,6,20.62c0,.09,0,.18.12.19a.18.18,0,0,0,.19-.13A9.1,9.1,0,0,0,6.72,19.56Z"></path><path d="M42.49,30.52c0,.39-.23,1.1-.62,1.25a.71.71,0,0,1-.81-.14,2.9,2.9,0,0,1-.55-.75A8.43,8.43,0,0,0,39.17,29c-.53-.55-.52-.87.07-1.36s1.07-.48,1.81.12A3.42,3.42,0,0,1,42.49,30.52Zm-3-2.05s-.1,0-.11.06a.33.33,0,0,0,.12.29c.55.64,1,1.36,1.49,2.05.06.09.12.22.24.15s0-.19,0-.29a5.46,5.46,0,0,0-.88-1.67A1.54,1.54,0,0,0,39.48,28.47ZM42,30.31a1.19,1.19,0,0,0-.59-.92c-.06,0-.12-.07-.19,0a.14.14,0,0,0,0,.16l.45.92a.18.18,0,0,0,.24.09A.2.2,0,0,0,42,30.31Z"></path><path d="M19.73,30.78a3.53,3.53,0,0,1,1.12-2.29c.06-.07.16-.12.2-.19a1.45,1.45,0,0,1,1.57-.67c.38,0,.55.35.68.69s-.1.42-.26.55a8.74,8.74,0,0,0-1.4,1.52,3.27,3.27,0,0,0-.59,1.33c-.05.26-.19.33-.43.27A1.68,1.68,0,0,1,19.73,30.78Zm1,.25c0,.08,0,.18.06.22s.17,0,.22-.12l.61-1a13.91,13.91,0,0,1,.95-1.2c.05-.08.16-.16.07-.25s-.19,0-.29,0a.67.67,0,0,0-.18.16c-.34.38-.69.76-1,1.16A2.28,2.28,0,0,0,20.71,31ZM20,30.46c0,.14,0,.25.1.28s.13-.07.19-.13a2.72,2.72,0,0,0,.33-.66c0-.08.05-.18,0-.23s-.13,0-.19.06A1.24,1.24,0,0,0,20,30.46Z"></path><path d="M59,17.73c-.06,1-.55,1.6-1.29,1.5a1.79,1.79,0,0,1-1.61-2c0-.61.78-1.12,1.57-1.08A1.71,1.71,0,0,1,59,17.73Zm-.63-.15c0-.44-.13-.56-.44-.49s-.22.23-.28.38-.21.41-.49.3a.25.25,0,0,0-.32.07c-.09.12,0,.23,0,.34a1,1,0,0,0,.8.5.8.8,0,0,0,.64-.61A1.15,1.15,0,0,0,58.38,17.58Z"></path><path d="M30.9,3.87c-.37,0-.77-.09-.95-.48a1.23,1.23,0,0,1,.25-1.3c.09-.1.28-.16.19-.34s-.24-.11-.38-.11a.75.75,0,0,1-.59-.27c-.12-.12-.24-.25-.15-.43a.42.42,0,0,1,.47-.25L30,.74c.22.07.32,0,.33-.24A.5.5,0,0,1,31,0c.14,0,.26.14.23.27-.11.46.17.5.49.53a.38.38,0,0,1,.35.27.45.45,0,0,1-.14.42.66.66,0,0,1-.41.1c-.1,0-.24,0-.27.1s.1.19.19.24a1,1,0,0,1,.49,1.23A1,1,0,0,1,30.9,3.87Zm.55-1c0-.42-.09-.56-.55-.63-.64-.08-.37.52-.54.8s0,.39.23.46A.78.78,0,0,0,31.45,2.9Z"></path><path d="M6.24,17.43A1.91,1.91,0,0,1,4.93,19.1a1.29,1.29,0,0,1-1.42-1.62A1.41,1.41,0,0,1,4.74,16.3a1.65,1.65,0,0,1,1.4.69A.68.68,0,0,1,6.24,17.43Zm-2.08.22a.77.77,0,0,0,1.1.74.44.44,0,0,0,.25-.48c0-.2-.17-.26-.35-.24s-.24-.09-.27-.25-.12-.29-.31-.28a.36.36,0,0,0-.37.22C4.18,17.47,4.18,17.58,4.16,17.65Z"></path><path d="M1.31,57.17c-.12-.49.19-.8.64-1a.56.56,0,0,1,.6,0,1.33,1.33,0,0,0,.4.12,1.07,1.07,0,0,1,.79,1.13,1.47,1.47,0,0,0,0,.21.93.93,0,0,1-.65,1.06,1.19,1.19,0,0,1-1.18-.13C1.43,58.18,1.32,57.94,1.31,57.17Zm1.87.19c0-.09,0-.21-.1-.24s-.18.06-.22.14a.55.55,0,0,1-.77.34c-.06,0-.13,0-.16,0s0,.12.05.16c.22.17.42.39.75.3S3.16,57.69,3.18,57.36Z"></path><path d="M10.59,51.2a1.61,1.61,0,0,1,.38-.58,2.54,2.54,0,0,1,1.61-1.07.64.64,0,0,1,.62.16c.18.19.09.39,0,.59a2.26,2.26,0,0,1-1.39,1.33.92.92,0,0,0-.31.16c-.14.09-.3.24-.48.12A.82.82,0,0,1,10.59,51.2Zm2-1.27c-.14,0-.28.06-.22.2s0,.41.25.42.27-.2.28-.36S12.74,49.94,12.58,49.93Z"></path><path d="M49.63,48.88a3,3,0,0,1,1.51.79c.21.19.4.38.59.58s.3.28.16.53-.29.5-.63.47a1.29,1.29,0,0,1-.53-.18,3.21,3.21,0,0,1-1.54-1.37c-.08-.17-.27-.3-.14-.52A.6.6,0,0,1,49.63,48.88Zm0,.4c-.23,0-.32.29-.2.52.18.39.57.52.9.73.16.09.45.3.56.13s-.21-.3-.36-.44-.78-.36-.82-.87C49.68,49.32,49.61,49.29,49.6,49.28Z"></path><path d="M60.58,56.35c-.08.43-.16.88-.67,1.1a.77.77,0,0,1-.89,0,1,1,0,0,1-.32-1.15,2.3,2.3,0,0,1,.35-.61.81.81,0,0,1,1.08-.25C60.5,55.58,60.55,56,60.58,56.35Zm-1,.6a.75.75,0,0,0,.5-.2c.06-.06.13-.15.07-.25s-.14-.07-.22,0a.69.69,0,0,1-.51-.06c-.09,0-.18-.17-.28-.08s0,.24,0,.36A.44.44,0,0,0,59.55,57Z"></path><path d="M31.54,62c.23,0,.46,0,.62.17s.44.37.34.69a1.57,1.57,0,0,1-1.06.69,1,1,0,0,1-.83-.57c-.21-.32.19-.89.67-1C31.38,62,31.47,62.05,31.54,62Zm.19.48c-.18,0-.13.25-.21.37s.05.16.14.16.23-.14.25-.29A.21.21,0,0,0,31.73,62.52Z"></path><path d="M23.62,29.11a.59.59,0,0,1,.53.79c-.21.39-.43.77-.64,1.15-.09.17-.21.18-.35.07s-.38-.28-.56-.43a.26.26,0,0,1-.06-.38,7.43,7.43,0,0,1,1-1.14S23.6,29.13,23.62,29.11Z"></path><path d="M22.94,31.71c0,.2-.09.27-.22.19l-.66-.48c-.08-.06-.15-.16,0-.27s.17-.06.25,0Z"></path><path d="M22.22,32.29c0,.14-.08.16-.16.16-.26,0-.32-.2-.39-.39s0-.14.09-.11A.88.88,0,0,1,22.22,32.29Z"></path><path d="M43.55,31.77a5.75,5.75,0,0,1-.23.93c0,.08-.08.18-.17.13s0-.14,0-.21l.39-.84Z"></path><path d="M19.57,14.49a8.57,8.57,0,0,0-1-2.09,4,4,0,0,0-2.94-1.46,5.51,5.51,0,0,0-1.94,0c-.47.11-.55.23-.28.63a.92.92,0,0,0,.22.22,1.3,1.3,0,0,1,.38.55c0,.06.05.12,0,.16a.08.08,0,0,1-.12,0,1.61,1.61,0,0,1-.48-.46,6.58,6.58,0,0,0-.61-.88.52.52,0,0,0-.54-.2c-.18.06-.23.26-.26.44-.07.39.23.59.43.82a20.08,20.08,0,0,1,1.81,2.47c0,.09.08.24.27.23s.42.08.59-.11.06-.4-.06-.58a.21.21,0,0,1,0-.1c-.12-.34-.08-.39.28-.37a5.19,5.19,0,0,0,.56,0,.45.45,0,0,1,.49.28,2.62,2.62,0,0,1,.27.92c0,1.06.21,2.12.18,3.19a15,15,0,0,1-.11,2.5c-.13.67-.2,1.35-.37,2a.55.55,0,0,0,0,.22c0,.16.09.2.23.1.37-.27.37-.27.45.21a.54.54,0,0,0,0,.12c.29-.22.43-.14.41.22,0,.06,0,.16.08.13.43-.23.3.13.33.31s.07.2.17.08c.27-.32.35-.2.34.15,0,.06,0,.15.06.19s.12-.05.16-.1.11-.15.2-.12.1.14.13.23-.06.34.15.5a6.44,6.44,0,0,0,.23-.71,32.07,32.07,0,0,0,.7-5.69A10.64,10.64,0,0,0,19.57,14.49Zm-4.51-2.92c-.17,0-.46,0-.45-.23s.29-.07.44-.09h.14a3.88,3.88,0,0,1,3,1.22.27.27,0,0,1,.07.08c.1.14.29.32.16.45s-.25-.11-.36-.2A4.84,4.84,0,0,0,15.06,11.57ZM18.63,16c-.51.09-.51.09-.8-.57v1c0,.07,0,.19-.09.2s-.13-.08-.15-.17c-.12-.47-.24-.95-.35-1.42,0-.05,0-.11-.09-.11s0,.25,0,.38a1.38,1.38,0,0,1,0,.78c0,.08-.06.18-.16.16s-.09-.1-.11-.17A3.64,3.64,0,0,1,17,14.45c0-.16.4-.22.59-.12a1.41,1.41,0,0,1,.71,1c.05.24.1.44.37.5a.12.12,0,0,1,.09.14C18.75,16,18.68,16,18.63,16Z"></path><path d="M35,7.39a.36.36,0,0,0,.23.47c.19.08.37.24.27.47s-.31.2-.52.1-.18-.09-.22-.06c-.35.2-.62-.09-.93-.13a.42.42,0,0,1-.35-.44c0-.21.07-.4.35-.39s.23-.12.29-.26a.43.43,0,0,1,.56-.26A.4.4,0,0,1,35,7.39Z"></path></g></g></svg> 